<svg width="99" height="104" viewBox="0 0 99 104" fill="none" xmlns="http://www.w3.org/2000/svg">
<rect y="4" width="99" height="100" rx="20" fill="#F0F0F0"/>
<g filter="url(#filter0_d_133_10)">
<mask id="path-2-inside-1_133_10" fill="white">
<path d="M79.354 88.9504C78.7609 88.5743 78.0518 88.1795 77.3015 87.7619C75.9596 87.0148 73.7138 85.7644 73.579 85.1794C73.2161 83.6051 74.4525 79.6878 75.1168 77.5833C75.2987 77.0071 75.4557 76.5094 75.5555 76.1485C77.2873 69.8888 76.4748 67.0182 75.8362 65.8643C74.4295 63.322 67.3069 64.0366 64.8379 64.3679C66.2727 58.4776 65.7083 54.5755 65.5297 53.6316C65.7663 53.1325 66.2684 51.796 65.8414 50.1319C65.3426 48.1884 63.7767 46.4985 61.1862 45.1074C61.1542 45.0902 60.9166 44.9788 60.855 44.9476C59.902 44.4675 59.5625 43.6357 59.4437 43.0432C60.3048 43.2552 61.6784 43.4044 62.2758 42.4329C62.6672 41.7962 62.7351 40.1107 62.7467 39.6093C62.7812 38.1021 62.6235 36.5032 62.3023 35.1069C61.6801 32.4021 60.467 30.4561 58.7939 29.479C58.3486 29.2195 57.8954 29.0261 57.4463 28.9006C57.3016 28.1094 57.0995 27.3298 56.8335 26.5671C55.8627 23.7833 54.4415 19.8282 53.1386 16.6572L53.1571 16.5888C53.8915 13.8901 54.5854 11.3411 52.9818 8.2893C52.7614 7.86973 52.3802 7.59026 51.9363 7.52236C51.4865 7.45357 51.0439 7.61068 50.7204 7.95286C48.6169 10.1765 47.7743 13.7677 48.6717 16.6863L49.663 19.911C49.6665 19.9228 49.6708 19.9348 49.6751 19.9464C49.702 20.0169 51.5211 24.8559 52.2507 30.7512C51.6224 31.4755 51.1137 32.3377 50.8371 33.1604C50.831 33.1751 50.8037 33.2638 50.7946 33.2933C50.4343 33.0769 49.9345 32.8263 49.3924 32.7039C49.2194 32.6649 49.0431 32.6452 48.868 32.6452C47.9588 32.6452 47.1299 33.1606 46.6506 34.0243C44.6481 37.6329 49.4669 44.6742 49.6729 44.9722C49.7688 45.1106 49.9171 45.1871 50.0696 45.1871H50.0767C50.2874 45.1871 50.4824 45.0442 50.5436 44.8256C50.5731 44.7204 50.5755 44.6185 50.5552 44.5255C50.4863 43.8813 49.9044 38.3769 49.9044 36.2296C49.9044 35.1882 50.2649 34.7998 50.654 34.6828C50.8283 36.3303 51.8918 38.6103 52.2375 39.3166C51.8518 40.5926 50.2753 46.6352 53.3114 51.4991C53.4024 51.8628 53.5095 52.2559 53.6223 52.6701C54.35 55.3405 55.3469 58.9978 54.1327 62.3619C53.4406 64.2803 52.3095 65.4628 51.4013 66.2791C51.1251 66.5277 50.8534 66.7563 50.5909 66.9772C49.7341 67.6981 48.9942 68.3208 48.682 69.1659C48.1805 70.5253 48.1229 71.7827 48.1333 72.4112C46.8181 72.9793 42.005 75.111 38.9681 77.1494C37.1498 78.3694 35.2621 78.0283 33.4838 77.5741C33.2601 77.5172 33.038 77.458 32.8181 77.3995C31.5645 77.0657 30.3807 76.75 29.2578 76.8935C27.032 77.1775 21.6822 78.8868 19.4856 79.6086C18.9627 79.7804 18.4076 79.6811 17.9625 79.3359C17.4612 78.9471 16.8193 78.8246 16.2449 79.0081C15.0236 79.3982 14.0998 80.5301 13.8913 81.8911L13.0342 87.4663C12.9919 87.7418 12.9858 88.024 13.0333 88.2984C13.0578 88.4391 13.0968 88.5914 13.1584 88.7417C13.4791 89.5237 14.2713 90.72 16.192 90.7198C16.3873 90.7198 16.5948 90.7075 16.814 90.681C18.0418 90.533 18.7466 90.1277 18.9685 89.4418C19.2578 88.5476 18.7236 87.7897 18.4317 87.617C17.9544 87.3346 17.3361 87.1313 17.3361 87.1313L20.0806 85.0791C20.8023 84.5395 21.6816 84.2649 22.5572 84.308L39.5376 85.13C39.5468 85.1305 39.5563 85.1307 39.5655 85.1305C39.7048 85.1287 43.026 85.0721 47.2545 83.7738C51.088 82.5966 56.378 80.1329 60.0401 75.0698C61.765 75.63 65.5159 74.2287 69.2477 72.7217C69.447 72.6412 69.6436 72.5619 69.8297 72.4873C69.1974 74.052 68.8461 76.4147 68.783 79.5426C68.7273 82.296 68.9214 84.7774 68.9634 85.2735L68.269 88.5369C68.2014 88.8545 68.2029 89.1894 68.3 89.4979C68.5019 90.1387 69.0179 90.5704 69.6211 90.6392L78.6117 91.4997C78.6594 91.5052 78.7067 91.5077 78.7535 91.5077C79.3073 91.5077 79.7803 91.1321 79.9477 90.5385C80.118 89.93 79.8603 89.2714 79.354 88.9504ZM48.9124 36.2293C48.9124 37.6866 49.1609 40.5344 49.3542 42.5287C47.9913 40.103 46.4414 36.4847 47.4993 34.5782C47.7977 34.0406 48.3091 33.7197 48.8673 33.7197C48.9746 33.7197 49.0833 33.7319 49.1897 33.7559C49.3967 33.8027 49.5991 33.875 49.786 33.9576C49.1581 34.4695 48.9124 35.3966 48.9124 36.2293ZM51.6196 34.2518C51.6196 34.0845 51.7522 33.5751 51.7562 33.5626C51.8966 33.133 52.1253 32.676 52.4073 32.2405C52.5547 33.9266 52.5986 35.6707 52.4767 37.3927C52.0445 36.336 51.6196 35.0752 51.6196 34.2518ZM53.2413 39.4538C53.2443 39.4448 53.2451 39.4355 53.2476 39.4264C53.2547 39.4018 53.262 39.3775 53.2658 39.3513C53.2663 39.3481 53.2666 39.3449 53.2671 39.3418C53.2671 39.3416 53.2671 39.3413 53.2673 39.3411C54.5469 30.469 51.0044 20.643 50.619 19.6102C50.6041 19.5702 50.5907 19.531 50.5782 19.49L49.6116 16.3461C48.8302 13.8041 49.5705 10.6691 51.412 8.72231C51.5143 8.61428 51.6552 8.56448 51.7975 8.58651C51.8784 8.59887 52.0281 8.64581 52.1202 8.8212C53.5146 11.4755 52.9083 13.7039 52.2061 16.2844L52.1355 16.5437C52.1022 16.6666 52.1099 16.797 52.1583 16.914C53.4715 20.0903 54.9213 24.1235 55.9062 26.9473C56.4882 28.6161 56.7585 30.3685 56.7101 32.1557L56.476 40.8048C56.4317 42.4357 56.5809 44.0692 56.9196 45.6596C56.9725 45.908 57.1765 46.0763 57.402 46.0763C57.5046 46.0763 57.612 46.0419 57.7072 45.9639C57.8648 45.8348 57.9258 45.6089 57.8815 45.4C57.5648 43.9048 57.4253 42.3695 57.467 40.8365L57.7011 32.1874C57.7203 31.4805 57.692 30.7788 57.6191 30.0846C57.8539 30.177 58.0897 30.2893 58.3241 30.426C60.1186 31.4739 60.9549 33.6914 61.3404 35.3672C62.0464 38.4369 61.6928 41.4438 61.4511 41.8368C61.1482 42.3295 59.8428 42.1108 59.0562 41.808C58.9107 41.7516 58.7494 41.7722 58.6197 41.8634C58.4902 41.9545 58.4071 42.1059 58.3953 42.2731C58.3314 43.1755 58.6936 45.0431 60.4498 45.9238C60.6051 46.6947 60.9523 49.2148 59.2442 50.67C57.4298 52.2157 54.7049 51.1168 54.1025 50.8438C51.0986 45.9589 53.2194 39.5185 53.2413 39.4538ZM55.0551 62.7534C56.3929 59.0462 55.3406 55.1846 54.5722 52.3652C54.552 52.2915 54.5325 52.2195 54.5129 52.1473C55.1195 52.3512 55.9546 52.5577 56.8558 52.5577C57.8531 52.5577 58.9288 52.3046 59.8562 51.5144C60.9199 50.6082 61.5135 49.2537 61.5737 47.5971C61.5879 47.2062 61.5704 46.8428 61.5401 46.5275C63.3828 47.6666 64.5055 48.9658 64.8808 50.399C65.2848 51.9415 64.671 53.1086 64.5965 53.2421C64.5099 53.3618 63.6481 54.4877 62.1694 54.2054C61.9006 54.1542 61.6427 54.3489 61.5951 54.6413C61.5476 54.9336 61.7275 55.2124 61.9971 55.264C62.2248 55.3075 62.4416 55.3271 62.6477 55.3271C63.5236 55.3271 64.2036 54.9748 64.6694 54.616C64.8564 56.2327 65.0157 59.8657 63.6848 64.8591C63.2374 66.5367 62.6458 68.1738 61.9186 69.7564C55.621 71.6749 53.0077 68.0125 52.3444 66.8188C53.2817 65.9329 54.3587 64.6834 55.0551 62.7534ZM19.5167 84.1941L15.9813 86.8378C15.794 86.9779 15.7143 87.2427 15.8037 87.4835C15.8588 87.6318 15.9794 87.7404 16.118 87.795L17.5395 88.3556C17.7517 88.4393 17.9286 88.6129 18.0078 88.842C18.0401 88.9357 18.0527 89.0228 18.0317 89.0867C17.9739 89.2625 17.5914 89.5056 16.7035 89.6127C15.0211 89.8151 14.3558 88.9984 14.0983 88.4244C14.0894 88.4047 14.0793 88.3474 14.0691 88.2726C14.0197 87.9102 14.0265 87.5414 14.082 87.18L14.8681 82.0674C15.0148 81.1098 15.6648 80.3135 16.5241 80.0389C16.8079 79.9484 17.1299 80.0122 17.3849 80.21C18.072 80.7428 18.964 80.9024 19.7723 80.6371C21.9436 79.9237 27.226 78.2348 29.3728 77.9609C30.3171 77.8405 31.4168 78.1333 32.5811 78.4432C32.6642 78.4652 32.7489 78.4871 32.8327 78.5093L32.3451 83.7059L22.6003 83.2342C21.5087 83.1798 20.415 83.5223 19.5167 84.1941ZM39.5652 84.0554L33.3369 83.7539L33.806 78.7547C35.5687 79.1627 37.5531 79.3624 39.489 78.0632C42.8793 75.7875 48.7662 73.295 48.8252 73.2701C49.0339 73.1821 49.1621 72.9524 49.1385 72.7109C49.137 72.6961 48.9987 71.1991 49.6016 69.565C49.8135 68.991 50.4551 68.4511 51.1979 67.826C51.322 67.7216 51.4484 67.6148 51.5766 67.5055C51.931 68.1021 52.6087 69.046 53.7132 69.8556C55.2491 70.981 56.9505 71.3685 58.566 71.3685C59.5254 71.3685 60.4528 71.2302 61.2991 71.03C60.969 71.6695 60.6164 72.2992 60.2408 72.9177C60.1523 73.0664 59.6558 73.8435 59.4861 74.0889C52.8699 83.6339 40.0408 84.0442 39.5652 84.0554ZM68.9005 71.7143C66.8802 72.5302 62.4515 74.3179 60.6816 74.1287C60.716 74.0751 60.98 73.6577 61.0709 73.5053C62.5957 70.9934 63.7626 68.2997 64.5443 65.494C65.2785 65.3907 67.2104 65.1447 69.2373 65.104C72.3952 65.0401 74.4893 65.5191 74.9861 66.4172C75.9472 68.1542 75.5948 71.2838 75.1456 73.5545C72.9853 73.9327 71.3768 73.346 70.6936 73.0196C70.8771 72.5441 71.0868 72.1595 71.3217 71.8707C71.4607 71.7002 71.4853 71.4533 71.3835 71.2544C71.2819 71.0554 71.0747 70.9475 70.8687 70.985C70.5878 71.0357 70.0317 71.2575 68.9005 71.7143ZM78.996 90.2331C78.9757 90.2997 78.9051 90.4511 78.706 90.4294L69.7155 89.569C69.5524 89.5503 69.41 89.4604 69.3148 89.3157C69.2197 89.1709 69.1876 88.9957 69.2243 88.8225L69.9461 85.4306C69.9584 85.3735 69.9618 85.3147 69.9565 85.2563C69.9541 85.2298 69.712 82.5572 69.7733 79.5559C69.8199 77.2757 70.0253 75.4216 70.3752 74.0442C71.0181 74.3435 72.1824 74.7557 73.7316 74.7557C74.1004 74.7557 74.4931 74.7287 74.903 74.6748C74.7897 75.1569 74.6838 75.5585 74.6061 75.8396C74.5116 76.1809 74.3575 76.6694 74.1789 77.2352C73.3842 79.753 72.1834 83.5578 72.6174 85.4401C72.8449 86.4269 74.3677 87.3368 76.8486 88.718C77.5969 89.1345 78.3037 89.5281 78.8775 89.8936C79.0451 90.0002 79.0162 90.1664 78.996 90.2331Z"/>
</mask>
<path d="M79.354 88.9504C78.7609 88.5743 78.0518 88.1795 77.3015 87.7619C75.9596 87.0148 73.7138 85.7644 73.579 85.1794C73.2161 83.6051 74.4525 79.6878 75.1168 77.5833C75.2987 77.0071 75.4557 76.5094 75.5555 76.1485C77.2873 69.8888 76.4748 67.0182 75.8362 65.8643C74.4295 63.322 67.3069 64.0366 64.8379 64.3679C66.2727 58.4776 65.7083 54.5755 65.5297 53.6316C65.7663 53.1325 66.2684 51.796 65.8414 50.1319C65.3426 48.1884 63.7767 46.4985 61.1862 45.1074C61.1542 45.0902 60.9166 44.9788 60.855 44.9476C59.902 44.4675 59.5625 43.6357 59.4437 43.0432C60.3048 43.2552 61.6784 43.4044 62.2758 42.4329C62.6672 41.7962 62.7351 40.1107 62.7467 39.6093C62.7812 38.1021 62.6235 36.5032 62.3023 35.1069C61.6801 32.4021 60.467 30.4561 58.7939 29.479C58.3486 29.2195 57.8954 29.0261 57.4463 28.9006C57.3016 28.1094 57.0995 27.3298 56.8335 26.5671C55.8627 23.7833 54.4415 19.8282 53.1386 16.6572L53.1571 16.5888C53.8915 13.8901 54.5854 11.3411 52.9818 8.2893C52.7614 7.86973 52.3802 7.59026 51.9363 7.52236C51.4865 7.45357 51.0439 7.61068 50.7204 7.95286C48.6169 10.1765 47.7743 13.7677 48.6717 16.6863L49.663 19.911C49.6665 19.9228 49.6708 19.9348 49.6751 19.9464C49.702 20.0169 51.5211 24.8559 52.2507 30.7512C51.6224 31.4755 51.1137 32.3377 50.8371 33.1604C50.831 33.1751 50.8037 33.2638 50.7946 33.2933C50.4343 33.0769 49.9345 32.8263 49.3924 32.7039C49.2194 32.6649 49.0431 32.6452 48.868 32.6452C47.9588 32.6452 47.1299 33.1606 46.6506 34.0243C44.6481 37.6329 49.4669 44.6742 49.6729 44.9722C49.7688 45.1106 49.9171 45.1871 50.0696 45.1871H50.0767C50.2874 45.1871 50.4824 45.0442 50.5436 44.8256C50.5731 44.7204 50.5755 44.6185 50.5552 44.5255C50.4863 43.8813 49.9044 38.3769 49.9044 36.2296C49.9044 35.1882 50.2649 34.7998 50.654 34.6828C50.8283 36.3303 51.8918 38.6103 52.2375 39.3166C51.8518 40.5926 50.2753 46.6352 53.3114 51.4991C53.4024 51.8628 53.5095 52.2559 53.6223 52.6701C54.35 55.3405 55.3469 58.9978 54.1327 62.3619C53.4406 64.2803 52.3095 65.4628 51.4013 66.2791C51.1251 66.5277 50.8534 66.7563 50.5909 66.9772C49.7341 67.6981 48.9942 68.3208 48.682 69.1659C48.1805 70.5253 48.1229 71.7827 48.1333 72.4112C46.8181 72.9793 42.005 75.111 38.9681 77.1494C37.1498 78.3694 35.2621 78.0283 33.4838 77.5741C33.2601 77.5172 33.038 77.458 32.8181 77.3995C31.5645 77.0657 30.3807 76.75 29.2578 76.8935C27.032 77.1775 21.6822 78.8868 19.4856 79.6086C18.9627 79.7804 18.4076 79.6811 17.9625 79.3359C17.4612 78.9471 16.8193 78.8246 16.2449 79.0081C15.0236 79.3982 14.0998 80.5301 13.8913 81.8911L13.0342 87.4663C12.9919 87.7418 12.9858 88.024 13.0333 88.2984C13.0578 88.4391 13.0968 88.5914 13.1584 88.7417C13.4791 89.5237 14.2713 90.72 16.192 90.7198C16.3873 90.7198 16.5948 90.7075 16.814 90.681C18.0418 90.533 18.7466 90.1277 18.9685 89.4418C19.2578 88.5476 18.7236 87.7897 18.4317 87.617C17.9544 87.3346 17.3361 87.1313 17.3361 87.1313L20.0806 85.0791C20.8023 84.5395 21.6816 84.2649 22.5572 84.308L39.5376 85.13C39.5468 85.1305 39.5563 85.1307 39.5655 85.1305C39.7048 85.1287 43.026 85.0721 47.2545 83.7738C51.088 82.5966 56.378 80.1329 60.0401 75.0698C61.765 75.63 65.5159 74.2287 69.2477 72.7217C69.447 72.6412 69.6436 72.5619 69.8297 72.4873C69.1974 74.052 68.8461 76.4147 68.783 79.5426C68.7273 82.296 68.9214 84.7774 68.9634 85.2735L68.269 88.5369C68.2014 88.8545 68.2029 89.1894 68.3 89.4979C68.5019 90.1387 69.0179 90.5704 69.6211 90.6392L78.6117 91.4997C78.6594 91.5052 78.7067 91.5077 78.7535 91.5077C79.3073 91.5077 79.7803 91.1321 79.9477 90.5385C80.118 89.93 79.8603 89.2714 79.354 88.9504ZM48.9124 36.2293C48.9124 37.6866 49.1609 40.5344 49.3542 42.5287C47.9913 40.103 46.4414 36.4847 47.4993 34.5782C47.7977 34.0406 48.3091 33.7197 48.8673 33.7197C48.9746 33.7197 49.0833 33.7319 49.1897 33.7559C49.3967 33.8027 49.5991 33.875 49.786 33.9576C49.1581 34.4695 48.9124 35.3966 48.9124 36.2293ZM51.6196 34.2518C51.6196 34.0845 51.7522 33.5751 51.7562 33.5626C51.8966 33.133 52.1253 32.676 52.4073 32.2405C52.5547 33.9266 52.5986 35.6707 52.4767 37.3927C52.0445 36.336 51.6196 35.0752 51.6196 34.2518ZM53.2413 39.4538C53.2443 39.4448 53.2451 39.4355 53.2476 39.4264C53.2547 39.4018 53.262 39.3775 53.2658 39.3513C53.2663 39.3481 53.2666 39.3449 53.2671 39.3418C53.2671 39.3416 53.2671 39.3413 53.2673 39.3411C54.5469 30.469 51.0044 20.643 50.619 19.6102C50.6041 19.5702 50.5907 19.531 50.5782 19.49L49.6116 16.3461C48.8302 13.8041 49.5705 10.6691 51.412 8.72231C51.5143 8.61428 51.6552 8.56448 51.7975 8.58651C51.8784 8.59887 52.0281 8.64581 52.1202 8.8212C53.5146 11.4755 52.9083 13.7039 52.2061 16.2844L52.1355 16.5437C52.1022 16.6666 52.1099 16.797 52.1583 16.914C53.4715 20.0903 54.9213 24.1235 55.9062 26.9473C56.4882 28.6161 56.7585 30.3685 56.7101 32.1557L56.476 40.8048C56.4317 42.4357 56.5809 44.0692 56.9196 45.6596C56.9725 45.908 57.1765 46.0763 57.402 46.0763C57.5046 46.0763 57.612 46.0419 57.7072 45.9639C57.8648 45.8348 57.9258 45.6089 57.8815 45.4C57.5648 43.9048 57.4253 42.3695 57.467 40.8365L57.7011 32.1874C57.7203 31.4805 57.692 30.7788 57.6191 30.0846C57.8539 30.177 58.0897 30.2893 58.3241 30.426C60.1186 31.4739 60.9549 33.6914 61.3404 35.3672C62.0464 38.4369 61.6928 41.4438 61.4511 41.8368C61.1482 42.3295 59.8428 42.1108 59.0562 41.808C58.9107 41.7516 58.7494 41.7722 58.6197 41.8634C58.4902 41.9545 58.4071 42.1059 58.3953 42.2731C58.3314 43.1755 58.6936 45.0431 60.4498 45.9238C60.6051 46.6947 60.9523 49.2148 59.2442 50.67C57.4298 52.2157 54.7049 51.1168 54.1025 50.8438C51.0986 45.9589 53.2194 39.5185 53.2413 39.4538ZM55.0551 62.7534C56.3929 59.0462 55.3406 55.1846 54.5722 52.3652C54.552 52.2915 54.5325 52.2195 54.5129 52.1473C55.1195 52.3512 55.9546 52.5577 56.8558 52.5577C57.8531 52.5577 58.9288 52.3046 59.8562 51.5144C60.9199 50.6082 61.5135 49.2537 61.5737 47.5971C61.5879 47.2062 61.5704 46.8428 61.5401 46.5275C63.3828 47.6666 64.5055 48.9658 64.8808 50.399C65.2848 51.9415 64.671 53.1086 64.5965 53.2421C64.5099 53.3618 63.6481 54.4877 62.1694 54.2054C61.9006 54.1542 61.6427 54.3489 61.5951 54.6413C61.5476 54.9336 61.7275 55.2124 61.9971 55.264C62.2248 55.3075 62.4416 55.3271 62.6477 55.3271C63.5236 55.3271 64.2036 54.9748 64.6694 54.616C64.8564 56.2327 65.0157 59.8657 63.6848 64.8591C63.2374 66.5367 62.6458 68.1738 61.9186 69.7564C55.621 71.6749 53.0077 68.0125 52.3444 66.8188C53.2817 65.9329 54.3587 64.6834 55.0551 62.7534ZM19.5167 84.1941L15.9813 86.8378C15.794 86.9779 15.7143 87.2427 15.8037 87.4835C15.8588 87.6318 15.9794 87.7404 16.118 87.795L17.5395 88.3556C17.7517 88.4393 17.9286 88.6129 18.0078 88.842C18.0401 88.9357 18.0527 89.0228 18.0317 89.0867C17.9739 89.2625 17.5914 89.5056 16.7035 89.6127C15.0211 89.8151 14.3558 88.9984 14.0983 88.4244C14.0894 88.4047 14.0793 88.3474 14.0691 88.2726C14.0197 87.9102 14.0265 87.5414 14.082 87.18L14.8681 82.0674C15.0148 81.1098 15.6648 80.3135 16.5241 80.0389C16.8079 79.9484 17.1299 80.0122 17.3849 80.21C18.072 80.7428 18.964 80.9024 19.7723 80.6371C21.9436 79.9237 27.226 78.2348 29.3728 77.9609C30.3171 77.8405 31.4168 78.1333 32.5811 78.4432C32.6642 78.4652 32.7489 78.4871 32.8327 78.5093L32.3451 83.7059L22.6003 83.2342C21.5087 83.1798 20.415 83.5223 19.5167 84.1941ZM39.5652 84.0554L33.3369 83.7539L33.806 78.7547C35.5687 79.1627 37.5531 79.3624 39.489 78.0632C42.8793 75.7875 48.7662 73.295 48.8252 73.2701C49.0339 73.1821 49.1621 72.9524 49.1385 72.7109C49.137 72.6961 48.9987 71.1991 49.6016 69.565C49.8135 68.991 50.4551 68.4511 51.1979 67.826C51.322 67.7216 51.4484 67.6148 51.5766 67.5055C51.931 68.1021 52.6087 69.046 53.7132 69.8556C55.2491 70.981 56.9505 71.3685 58.566 71.3685C59.5254 71.3685 60.4528 71.2302 61.2991 71.03C60.969 71.6695 60.6164 72.2992 60.2408 72.9177C60.1523 73.0664 59.6558 73.8435 59.4861 74.0889C52.8699 83.6339 40.0408 84.0442 39.5652 84.0554ZM68.9005 71.7143C66.8802 72.5302 62.4515 74.3179 60.6816 74.1287C60.716 74.0751 60.98 73.6577 61.0709 73.5053C62.5957 70.9934 63.7626 68.2997 64.5443 65.494C65.2785 65.3907 67.2104 65.1447 69.2373 65.104C72.3952 65.0401 74.4893 65.5191 74.9861 66.4172C75.9472 68.1542 75.5948 71.2838 75.1456 73.5545C72.9853 73.9327 71.3768 73.346 70.6936 73.0196C70.8771 72.5441 71.0868 72.1595 71.3217 71.8707C71.4607 71.7002 71.4853 71.4533 71.3835 71.2544C71.2819 71.0554 71.0747 70.9475 70.8687 70.985C70.5878 71.0357 70.0317 71.2575 68.9005 71.7143ZM78.996 90.2331C78.9757 90.2997 78.9051 90.4511 78.706 90.4294L69.7155 89.569C69.5524 89.5503 69.41 89.4604 69.3148 89.3157C69.2197 89.1709 69.1876 88.9957 69.2243 88.8225L69.9461 85.4306C69.9584 85.3735 69.9618 85.3147 69.9565 85.2563C69.9541 85.2298 69.712 82.5572 69.7733 79.5559C69.8199 77.2757 70.0253 75.4216 70.3752 74.0442C71.0181 74.3435 72.1824 74.7557 73.7316 74.7557C74.1004 74.7557 74.4931 74.7287 74.903 74.6748C74.7897 75.1569 74.6838 75.5585 74.6061 75.8396C74.5116 76.1809 74.3575 76.6694 74.1789 77.2352C73.3842 79.753 72.1834 83.5578 72.6174 85.4401C72.8449 86.4269 74.3677 87.3368 76.8486 88.718C77.5969 89.1345 78.3037 89.5281 78.8775 89.8936C79.0451 90.0002 79.0162 90.1664 78.996 90.2331Z" fill="white"/>
<path d="M79.354 88.9504C78.7609 88.5743 78.0518 88.1795 77.3015 87.7619C75.9596 87.0148 73.7138 85.7644 73.579 85.1794C73.2161 83.6051 74.4525 79.6878 75.1168 77.5833C75.2987 77.0071 75.4557 76.5094 75.5555 76.1485C77.2873 69.8888 76.4748 67.0182 75.8362 65.8643C74.4295 63.322 67.3069 64.0366 64.8379 64.3679C66.2727 58.4776 65.7083 54.5755 65.5297 53.6316C65.7663 53.1325 66.2684 51.796 65.8414 50.1319C65.3426 48.1884 63.7767 46.4985 61.1862 45.1074C61.1542 45.0902 60.9166 44.9788 60.855 44.9476C59.902 44.4675 59.5625 43.6357 59.4437 43.0432C60.3048 43.2552 61.6784 43.4044 62.2758 42.4329C62.6672 41.7962 62.7351 40.1107 62.7467 39.6093C62.7812 38.1021 62.6235 36.5032 62.3023 35.1069C61.6801 32.4021 60.467 30.4561 58.7939 29.479C58.3486 29.2195 57.8954 29.0261 57.4463 28.9006C57.3016 28.1094 57.0995 27.3298 56.8335 26.5671C55.8627 23.7833 54.4415 19.8282 53.1386 16.6572L53.1571 16.5888C53.8915 13.8901 54.5854 11.3411 52.9818 8.2893C52.7614 7.86973 52.3802 7.59026 51.9363 7.52236C51.4865 7.45357 51.0439 7.61068 50.7204 7.95286C48.6169 10.1765 47.7743 13.7677 48.6717 16.6863L49.663 19.911C49.6665 19.9228 49.6708 19.9348 49.6751 19.9464C49.702 20.0169 51.5211 24.8559 52.2507 30.7512C51.6224 31.4755 51.1137 32.3377 50.8371 33.1604C50.831 33.1751 50.8037 33.2638 50.7946 33.2933C50.4343 33.0769 49.9345 32.8263 49.3924 32.7039C49.2194 32.6649 49.0431 32.6452 48.868 32.6452C47.9588 32.6452 47.1299 33.1606 46.6506 34.0243C44.6481 37.6329 49.4669 44.6742 49.6729 44.9722C49.7688 45.1106 49.9171 45.1871 50.0696 45.1871H50.0767C50.2874 45.1871 50.4824 45.0442 50.5436 44.8256C50.5731 44.7204 50.5755 44.6185 50.5552 44.5255C50.4863 43.8813 49.9044 38.3769 49.9044 36.2296C49.9044 35.1882 50.2649 34.7998 50.654 34.6828C50.8283 36.3303 51.8918 38.6103 52.2375 39.3166C51.8518 40.5926 50.2753 46.6352 53.3114 51.4991C53.4024 51.8628 53.5095 52.2559 53.6223 52.6701C54.35 55.3405 55.3469 58.9978 54.1327 62.3619C53.4406 64.2803 52.3095 65.4628 51.4013 66.2791C51.1251 66.5277 50.8534 66.7563 50.5909 66.9772C49.7341 67.6981 48.9942 68.3208 48.682 69.1659C48.1805 70.5253 48.1229 71.7827 48.1333 72.4112C46.8181 72.9793 42.005 75.111 38.9681 77.1494C37.1498 78.3694 35.2621 78.0283 33.4838 77.5741C33.2601 77.5172 33.038 77.458 32.8181 77.3995C31.5645 77.0657 30.3807 76.75 29.2578 76.8935C27.032 77.1775 21.6822 78.8868 19.4856 79.6086C18.9627 79.7804 18.4076 79.6811 17.9625 79.3359C17.4612 78.9471 16.8193 78.8246 16.2449 79.0081C15.0236 79.3982 14.0998 80.5301 13.8913 81.8911L13.0342 87.4663C12.9919 87.7418 12.9858 88.024 13.0333 88.2984C13.0578 88.4391 13.0968 88.5914 13.1584 88.7417C13.4791 89.5237 14.2713 90.72 16.192 90.7198C16.3873 90.7198 16.5948 90.7075 16.814 90.681C18.0418 90.533 18.7466 90.1277 18.9685 89.4418C19.2578 88.5476 18.7236 87.7897 18.4317 87.617C17.9544 87.3346 17.3361 87.1313 17.3361 87.1313L20.0806 85.0791C20.8023 84.5395 21.6816 84.2649 22.5572 84.308L39.5376 85.13C39.5468 85.1305 39.5563 85.1307 39.5655 85.1305C39.7048 85.1287 43.026 85.0721 47.2545 83.7738C51.088 82.5966 56.378 80.1329 60.0401 75.0698C61.765 75.63 65.5159 74.2287 69.2477 72.7217C69.447 72.6412 69.6436 72.5619 69.8297 72.4873C69.1974 74.052 68.8461 76.4147 68.783 79.5426C68.7273 82.296 68.9214 84.7774 68.9634 85.2735L68.269 88.5369C68.2014 88.8545 68.2029 89.1894 68.3 89.4979C68.5019 90.1387 69.0179 90.5704 69.6211 90.6392L78.6117 91.4997C78.6594 91.5052 78.7067 91.5077 78.7535 91.5077C79.3073 91.5077 79.7803 91.1321 79.9477 90.5385C80.118 89.93 79.8603 89.2714 79.354 88.9504ZM48.9124 36.2293C48.9124 37.6866 49.1609 40.5344 49.3542 42.5287C47.9913 40.103 46.4414 36.4847 47.4993 34.5782C47.7977 34.0406 48.3091 33.7197 48.8673 33.7197C48.9746 33.7197 49.0833 33.7319 49.1897 33.7559C49.3967 33.8027 49.5991 33.875 49.786 33.9576C49.1581 34.4695 48.9124 35.3966 48.9124 36.2293ZM51.6196 34.2518C51.6196 34.0845 51.7522 33.5751 51.7562 33.5626C51.8966 33.133 52.1253 32.676 52.4073 32.2405C52.5547 33.9266 52.5986 35.6707 52.4767 37.3927C52.0445 36.336 51.6196 35.0752 51.6196 34.2518ZM53.2413 39.4538C53.2443 39.4448 53.2451 39.4355 53.2476 39.4264C53.2547 39.4018 53.262 39.3775 53.2658 39.3513C53.2663 39.3481 53.2666 39.3449 53.2671 39.3418C53.2671 39.3416 53.2671 39.3413 53.2673 39.3411C54.5469 30.469 51.0044 20.643 50.619 19.6102C50.6041 19.5702 50.5907 19.531 50.5782 19.49L49.6116 16.3461C48.8302 13.8041 49.5705 10.6691 51.412 8.72231C51.5143 8.61428 51.6552 8.56448 51.7975 8.58651C51.8784 8.59887 52.0281 8.64581 52.1202 8.8212C53.5146 11.4755 52.9083 13.7039 52.2061 16.2844L52.1355 16.5437C52.1022 16.6666 52.1099 16.797 52.1583 16.914C53.4715 20.0903 54.9213 24.1235 55.9062 26.9473C56.4882 28.6161 56.7585 30.3685 56.7101 32.1557L56.476 40.8048C56.4317 42.4357 56.5809 44.0692 56.9196 45.6596C56.9725 45.908 57.1765 46.0763 57.402 46.0763C57.5046 46.0763 57.612 46.0419 57.7072 45.9639C57.8648 45.8348 57.9258 45.6089 57.8815 45.4C57.5648 43.9048 57.4253 42.3695 57.467 40.8365L57.7011 32.1874C57.7203 31.4805 57.692 30.7788 57.6191 30.0846C57.8539 30.177 58.0897 30.2893 58.3241 30.426C60.1186 31.4739 60.9549 33.6914 61.3404 35.3672C62.0464 38.4369 61.6928 41.4438 61.4511 41.8368C61.1482 42.3295 59.8428 42.1108 59.0562 41.808C58.9107 41.7516 58.7494 41.7722 58.6197 41.8634C58.4902 41.9545 58.4071 42.1059 58.3953 42.2731C58.3314 43.1755 58.6936 45.0431 60.4498 45.9238C60.6051 46.6947 60.9523 49.2148 59.2442 50.67C57.4298 52.2157 54.7049 51.1168 54.1025 50.8438C51.0986 45.9589 53.2194 39.5185 53.2413 39.4538ZM55.0551 62.7534C56.3929 59.0462 55.3406 55.1846 54.5722 52.3652C54.552 52.2915 54.5325 52.2195 54.5129 52.1473C55.1195 52.3512 55.9546 52.5577 56.8558 52.5577C57.8531 52.5577 58.9288 52.3046 59.8562 51.5144C60.9199 50.6082 61.5135 49.2537 61.5737 47.5971C61.5879 47.2062 61.5704 46.8428 61.5401 46.5275C63.3828 47.6666 64.5055 48.9658 64.8808 50.399C65.2848 51.9415 64.671 53.1086 64.5965 53.2421C64.5099 53.3618 63.6481 54.4877 62.1694 54.2054C61.9006 54.1542 61.6427 54.3489 61.5951 54.6413C61.5476 54.9336 61.7275 55.2124 61.9971 55.264C62.2248 55.3075 62.4416 55.3271 62.6477 55.3271C63.5236 55.3271 64.2036 54.9748 64.6694 54.616C64.8564 56.2327 65.0157 59.8657 63.6848 64.8591C63.2374 66.5367 62.6458 68.1738 61.9186 69.7564C55.621 71.6749 53.0077 68.0125 52.3444 66.8188C53.2817 65.9329 54.3587 64.6834 55.0551 62.7534ZM19.5167 84.1941L15.9813 86.8378C15.794 86.9779 15.7143 87.2427 15.8037 87.4835C15.8588 87.6318 15.9794 87.7404 16.118 87.795L17.5395 88.3556C17.7517 88.4393 17.9286 88.6129 18.0078 88.842C18.0401 88.9357 18.0527 89.0228 18.0317 89.0867C17.9739 89.2625 17.5914 89.5056 16.7035 89.6127C15.0211 89.8151 14.3558 88.9984 14.0983 88.4244C14.0894 88.4047 14.0793 88.3474 14.0691 88.2726C14.0197 87.9102 14.0265 87.5414 14.082 87.18L14.8681 82.0674C15.0148 81.1098 15.6648 80.3135 16.5241 80.0389C16.8079 79.9484 17.1299 80.0122 17.3849 80.21C18.072 80.7428 18.964 80.9024 19.7723 80.6371C21.9436 79.9237 27.226 78.2348 29.3728 77.9609C30.3171 77.8405 31.4168 78.1333 32.5811 78.4432C32.6642 78.4652 32.7489 78.4871 32.8327 78.5093L32.3451 83.7059L22.6003 83.2342C21.5087 83.1798 20.415 83.5223 19.5167 84.1941ZM39.5652 84.0554L33.3369 83.7539L33.806 78.7547C35.5687 79.1627 37.5531 79.3624 39.489 78.0632C42.8793 75.7875 48.7662 73.295 48.8252 73.2701C49.0339 73.1821 49.1621 72.9524 49.1385 72.7109C49.137 72.6961 48.9987 71.1991 49.6016 69.565C49.8135 68.991 50.4551 68.4511 51.1979 67.826C51.322 67.7216 51.4484 67.6148 51.5766 67.5055C51.931 68.1021 52.6087 69.046 53.7132 69.8556C55.2491 70.981 56.9505 71.3685 58.566 71.3685C59.5254 71.3685 60.4528 71.2302 61.2991 71.03C60.969 71.6695 60.6164 72.2992 60.2408 72.9177C60.1523 73.0664 59.6558 73.8435 59.4861 74.0889C52.8699 83.6339 40.0408 84.0442 39.5652 84.0554ZM68.9005 71.7143C66.8802 72.5302 62.4515 74.3179 60.6816 74.1287C60.716 74.0751 60.98 73.6577 61.0709 73.5053C62.5957 70.9934 63.7626 68.2997 64.5443 65.494C65.2785 65.3907 67.2104 65.1447 69.2373 65.104C72.3952 65.0401 74.4893 65.5191 74.9861 66.4172C75.9472 68.1542 75.5948 71.2838 75.1456 73.5545C72.9853 73.9327 71.3768 73.346 70.6936 73.0196C70.8771 72.5441 71.0868 72.1595 71.3217 71.8707C71.4607 71.7002 71.4853 71.4533 71.3835 71.2544C71.2819 71.0554 71.0747 70.9475 70.8687 70.985C70.5878 71.0357 70.0317 71.2575 68.9005 71.7143ZM78.996 90.2331C78.9757 90.2997 78.9051 90.4511 78.706 90.4294L69.7155 89.569C69.5524 89.5503 69.41 89.4604 69.3148 89.3157C69.2197 89.1709 69.1876 88.9957 69.2243 88.8225L69.9461 85.4306C69.9584 85.3735 69.9618 85.3147 69.9565 85.2563C69.9541 85.2298 69.712 82.5572 69.7733 79.5559C69.8199 77.2757 70.0253 75.4216 70.3752 74.0442C71.0181 74.3435 72.1824 74.7557 73.7316 74.7557C74.1004 74.7557 74.4931 74.7287 74.903 74.6748C74.7897 75.1569 74.6838 75.5585 74.6061 75.8396C74.5116 76.1809 74.3575 76.6694 74.1789 77.2352C73.3842 79.753 72.1834 83.5578 72.6174 85.4401C72.8449 86.4269 74.3677 87.3368 76.8486 88.718C77.5969 89.1345 78.3037 89.5281 78.8775 89.8936C79.0451 90.0002 79.0162 90.1664 78.996 90.2331Z" stroke="#FF1292" stroke-width="2" mask="url(#path-2-inside-1_133_10)"/>
</g>
<defs>
<filter id="filter0_d_133_10" x="9" y="7.5065" width="75" height="92.0013" filterUnits="userSpaceOnUse" color-interpolation-filters="sRGB">
<feFlood flood-opacity="0" result="BackgroundImageFix"/>
<feColorMatrix in="SourceAlpha" type="matrix" values="0 0 0 0 0 0 0 0 0 0 0 0 0 0 0 0 0 0 127 0" result="hardAlpha"/>
<feOffset dy="4"/>
<feGaussianBlur stdDeviation="2"/>
<feComposite in2="hardAlpha" operator="out"/>
<feColorMatrix type="matrix" values="0 0 0 0 0 0 0 0 0 0 0 0 0 0 0 0 0 0 0.25 0"/>
<feBlend mode="normal" in2="BackgroundImageFix" result="effect1_dropShadow_133_10"/>
<feBlend mode="normal" in="SourceGraphic" in2="effect1_dropShadow_133_10" result="shape"/>
</filter>
</defs>
</svg>
